<svg width="185" height="187" viewBox="0 0 185 187" fill="none" xmlns="http://www.w3.org/2000/svg">
<path d="M48.2593 129.578H47.3094C47.3825 128.655 47.3825 127.916 47.3825 127.362C47.3825 125.701 47.0537 124.519 46.3596 123.854C45.6655 123.19 44.7887 122.857 43.7658 122.857C42.3776 122.857 40.9163 123.448 39.4184 124.593C37.9206 125.738 36.6055 127.547 35.546 129.984C34.4501 132.421 33.9386 134.932 33.9386 137.48C33.9386 139.955 34.45 141.875 35.4364 143.204C36.4593 144.534 37.7014 145.198 39.2358 145.198C41.2816 145.198 43.1813 143.943 44.8983 141.432C45.081 141.173 45.2636 141.062 45.4463 141.062C45.5924 141.062 45.7386 141.099 45.8482 141.21C45.9577 141.321 45.9943 141.432 45.9943 141.542C45.9943 141.875 45.5924 142.503 44.8252 143.426C44.0581 144.349 43.0717 145.161 41.8661 145.789C40.6606 146.417 39.4915 146.712 38.359 146.712C36.9708 146.712 35.6921 146.343 34.4866 145.604C33.281 144.866 32.3677 143.832 31.7101 142.466C31.0525 141.099 30.7237 139.511 30.7237 137.628C30.7237 135.006 31.3813 132.421 32.733 129.837C34.0847 127.252 35.7652 125.258 37.7745 123.854C39.7838 122.451 41.7931 121.749 43.6927 121.749C44.3869 121.749 45.081 121.823 45.7751 121.971C46.0674 122.045 47.2729 122.451 49.4283 123.19C48.6977 125.294 48.3324 127.399 48.2593 129.578Z" fill="#D3AF5F"/>
<path d="M63.2376 139.438L63.7125 140.102C62.6165 141.321 61.5206 142.281 60.3881 142.983C59.6209 143.463 58.9633 143.721 58.4518 143.721C58.05 143.721 57.7212 143.537 57.4655 143.204C57.2097 142.872 57.1001 142.355 57.1001 141.653C57.1001 141.173 57.2097 140.472 57.3924 139.585C57.5751 138.662 58.123 136.705 59.0363 133.714C59.4382 132.237 59.6209 131.387 59.6209 131.129C59.6209 130.76 59.4382 130.575 59.0363 130.575C58.5249 130.575 57.9038 130.834 57.1732 131.314C56.1503 132.015 55.2004 132.865 54.3967 133.935C53.8853 134.637 53.4834 135.634 53.1912 136.963L51.8029 143.204H49.1726C49.7206 141.136 50.159 139.438 50.4878 138.108L53.0816 126.661C53.5565 124.556 54.1775 122.931 54.9447 121.786C55.7119 120.642 56.7348 119.718 57.9769 119.054C59.219 118.389 60.4611 118.02 61.6667 118.02C62.1781 118.02 62.58 118.131 62.8723 118.389C63.1645 118.648 63.3106 118.98 63.3106 119.349C63.3106 119.681 63.1645 119.977 62.8723 120.198C62.58 120.457 62.1781 120.568 61.7032 120.568C61.411 120.568 61.0456 120.531 60.6072 120.457C59.5843 120.309 58.8902 120.235 58.4884 120.235C57.9404 120.235 57.502 120.457 57.1732 120.9C56.8444 121.343 56.4791 122.377 56.1138 124.039L54.141 132.865C55.5292 131.387 57.0636 130.132 58.7076 129.098C59.6574 128.507 60.4611 128.175 61.0456 128.175C61.5206 128.175 61.8493 128.322 62.1416 128.581C62.4339 128.839 62.5435 129.246 62.5435 129.726C62.5435 130.132 62.5069 130.538 62.3973 130.944C62.2512 131.646 61.8859 132.901 61.3014 134.748C60.5342 137.296 60.0958 138.884 59.9497 139.511C59.8035 140.139 59.7305 140.693 59.7305 141.173C59.7305 141.358 59.767 141.506 59.8401 141.616C59.9131 141.727 59.9862 141.764 60.1323 141.764C60.4246 141.764 60.936 141.432 61.7032 140.73C62.0685 140.361 62.6165 139.918 63.2376 139.438Z" fill="#D3AF5F"/>
<path d="M76.9737 127.879L78.1428 127.621L76.8276 132.126C76.2796 133.935 75.8047 136.003 75.3298 138.33C75.0741 139.585 74.9279 140.435 74.9279 140.804C74.9279 141.173 75.0741 141.358 75.3663 141.358C75.549 141.358 75.8413 141.247 76.2796 140.989C77.0103 140.545 77.7044 139.992 78.3985 139.364L78.9465 140.065C77.5948 141.321 76.7546 142.059 76.3527 142.318C75.5855 142.835 74.8914 143.241 74.1973 143.463C73.7589 143.647 73.3205 143.721 72.8821 143.721C72.5899 143.721 72.3341 143.647 72.188 143.5C72.0419 143.352 71.9688 143.13 71.9688 142.872C71.9688 142.687 72.0053 142.466 72.1149 142.133L72.8091 139.696C71.7862 140.915 70.5806 141.986 69.1923 142.872C68.3156 143.426 67.5484 143.684 66.8177 143.684C66.1236 143.684 65.6122 143.426 65.2469 142.946C64.7354 142.281 64.5162 141.432 64.5162 140.361C64.5162 139.105 64.845 137.702 65.5026 136.151C66.1602 134.6 67.0735 133.197 68.1694 131.941C69.3019 130.686 70.471 129.763 71.7131 129.172C72.6629 128.729 73.905 128.507 75.4029 128.507C75.7682 128.507 76.17 128.544 76.5354 128.581L76.9737 127.879ZM74.7818 130.612C74.1607 130.464 73.6128 130.427 73.1744 130.427C72.1149 130.427 71.2016 130.723 70.3979 131.314C69.5942 131.904 68.8636 132.975 68.206 134.489C67.5119 136.003 67.1831 137.554 67.1831 139.068C67.1831 139.881 67.3292 140.472 67.5849 140.804C67.8407 141.173 68.206 141.358 68.6444 141.358C69.4481 141.358 70.3249 140.915 71.2747 140.028C72.188 139.142 72.8821 137.85 73.3205 136.188L74.7818 130.612Z" fill="#D3AF5F"/>
<path d="M87.422 138.921L88.0065 139.548C87.0932 140.582 85.9973 141.542 84.7552 142.429C83.5131 143.278 82.4536 143.721 81.6499 143.721C81.2846 143.721 80.9923 143.573 80.7366 143.315C80.5174 143.02 80.3713 142.65 80.3713 142.17C80.3713 141.21 80.7366 139.253 81.4672 136.262L83.3669 128.433C84.061 125.59 84.6456 123.707 85.1205 122.746C85.8511 121.306 86.874 120.162 88.2257 119.349C89.5774 118.537 90.9657 118.131 92.4635 118.131C92.9749 118.131 93.3768 118.241 93.669 118.5C93.9613 118.758 94.1074 119.054 94.1074 119.386C94.1074 119.755 93.9613 120.088 93.669 120.346C93.3768 120.605 92.9749 120.715 92.427 120.715C92.0616 120.715 91.5867 120.642 90.9291 120.531C90.3811 120.42 89.8331 120.383 89.3582 120.383C88.8833 120.383 88.518 120.494 88.2623 120.679C87.9335 120.974 87.6047 121.565 87.3489 122.488C87.0567 123.411 86.6183 125.184 85.9972 127.879L84.2437 135.376C83.3669 139.142 82.9285 141.099 82.9285 141.247C82.9285 141.616 83.0747 141.801 83.3304 141.801C83.5861 141.801 83.9514 141.653 84.4629 141.321C85.4493 140.656 86.4356 139.881 87.422 138.921Z" fill="#D3AF5F"/>
<path d="M96.0436 138.921L96.6282 139.548C95.7149 140.582 94.6189 141.542 93.3768 142.429C92.1347 143.278 91.0752 143.721 90.2715 143.721C89.9062 143.721 89.6139 143.573 89.3582 143.315C89.139 143.02 88.9929 142.65 88.9929 142.17C88.9929 141.21 89.3582 139.253 90.0889 136.262L91.9886 128.433C92.6827 125.59 93.2672 123.707 93.7421 122.746C94.4728 121.306 95.4957 120.162 96.8474 119.349C98.1991 118.537 99.5873 118.131 101.085 118.131C101.597 118.131 101.998 118.241 102.291 118.5C102.583 118.758 102.729 119.054 102.729 119.386C102.729 119.755 102.583 120.088 102.291 120.346C101.998 120.605 101.597 120.715 101.049 120.715C100.683 120.715 100.208 120.642 99.5508 120.531C99.0028 120.42 98.4548 120.383 97.9799 120.383C97.5049 120.383 97.1396 120.494 96.8839 120.679C96.5551 120.974 96.2263 121.565 95.9706 122.488C95.6783 123.411 95.2399 125.184 94.6189 127.879L92.8653 135.376C91.9885 139.142 91.5502 141.099 91.5502 141.247C91.5502 141.616 91.6963 141.801 91.952 141.801C92.2077 141.801 92.5731 141.653 93.0845 141.321C94.1074 140.656 95.0573 139.881 96.0436 138.921Z" fill="#D3AF5F"/>
<path d="M106.602 138.736L107.186 139.511C104.3 142.281 101.816 143.684 99.77 143.684C98.9297 143.684 98.3087 143.389 97.8703 142.835C97.4319 142.281 97.2127 141.358 97.2127 140.102C97.2127 137.554 97.9799 135.006 99.5142 132.495C101.231 129.615 103.277 128.212 105.688 128.212C106.528 128.212 107.15 128.433 107.588 128.839C108.026 129.246 108.245 129.837 108.245 130.575C108.245 131.351 107.99 132.126 107.442 132.865C106.894 133.603 105.98 134.379 104.592 135.191C103.898 135.597 102.437 136.299 100.208 137.333C100.099 137.961 100.062 138.588 100.062 139.179C100.062 140.028 100.208 140.619 100.464 140.952C100.72 141.284 101.122 141.469 101.633 141.469C102.108 141.469 102.656 141.321 103.241 141.062C103.971 140.619 105.104 139.844 106.602 138.736ZM100.428 136.151C102.327 135.302 103.752 134.379 104.702 133.382C105.359 132.68 105.688 132.015 105.688 131.314C105.688 130.797 105.542 130.39 105.286 130.095C105.031 129.8 104.665 129.652 104.263 129.652C103.825 129.652 103.387 129.836 102.985 130.169C102.437 130.612 101.962 131.277 101.597 132.163C101.012 133.455 100.647 134.785 100.428 136.151Z" fill="#D3AF5F"/>
<path d="M110.109 132.384L109.524 131.757C111.022 130.28 112.227 129.32 113.141 128.839C114.054 128.359 114.785 128.138 115.442 128.138C115.698 128.138 115.881 128.175 116.027 128.286C116.173 128.396 116.246 128.507 116.246 128.655C116.246 128.766 116.21 128.95 116.173 129.209L115.369 132.791C116.575 131.461 118.073 130.206 119.899 129.024C120.849 128.433 121.653 128.101 122.274 128.101C122.749 128.101 123.078 128.249 123.333 128.544C123.589 128.839 123.735 129.283 123.735 129.837C123.735 130.206 123.699 130.612 123.589 131.092C123.406 131.868 122.895 133.566 122.128 136.151C121.361 138.588 120.995 140.176 120.995 140.989C120.995 141.247 121.032 141.432 121.105 141.542C121.178 141.653 121.288 141.727 121.397 141.727C121.726 141.727 122.274 141.395 123.005 140.73C123.516 140.25 124.027 139.807 124.575 139.401L125.014 140.028C123.918 141.247 122.822 142.207 121.653 142.946C120.922 143.426 120.301 143.647 119.826 143.647C119.388 143.647 119.023 143.5 118.767 143.167C118.511 142.835 118.401 142.318 118.401 141.579C118.401 140.509 119.059 137.887 120.374 133.677C120.776 132.163 120.959 131.314 120.959 131.055C120.959 130.686 120.74 130.501 120.301 130.501C119.826 130.501 119.242 130.76 118.475 131.24C117.379 131.978 116.429 132.865 115.698 133.862C115.223 134.489 114.821 135.523 114.529 136.927L113.104 143.167H110.474C110.985 141.395 111.387 139.659 111.753 138.034L113.323 131.24C113.397 130.981 113.397 130.76 113.397 130.649C113.397 130.317 113.287 130.169 113.031 130.169C112.849 130.169 112.556 130.28 112.227 130.538C111.46 131.092 110.766 131.683 110.109 132.384Z" fill="#D3AF5F"/>
<path d="M138.092 128.064L139.517 127.732C138.677 130.501 137.873 133.308 137.143 136.114C136.631 138.108 136.266 139.77 136.083 141.099C135.974 141.764 135.9 142.613 135.9 143.647C135.864 145.346 135.681 146.749 135.352 147.783C134.841 149.26 133.928 150.442 132.576 151.328C131.224 152.214 129.617 152.658 127.79 152.658C126.183 152.658 124.941 152.288 124.027 151.513C123.114 150.774 122.676 149.888 122.676 148.928C122.676 147.968 123.041 147.082 123.772 146.232C124.32 145.604 125.452 144.829 127.169 143.943C128.046 143.463 128.85 143.02 129.617 142.503C128.74 142.946 128.046 143.167 127.571 143.167C127.133 143.167 126.731 142.946 126.402 142.539C126.073 142.133 125.891 141.579 125.891 140.915C125.891 138.736 126.548 136.557 127.827 134.379C129.105 132.237 130.676 130.612 132.466 129.504C133.599 128.839 134.987 128.507 136.668 128.507C136.996 128.507 137.398 128.507 137.873 128.544L138.092 128.064ZM133.709 140.435C132.905 141.173 131.37 142.318 129.069 143.906C127.06 145.272 125.818 146.269 125.343 146.897C124.868 147.525 124.648 148.152 124.648 148.854C124.648 149.519 124.941 150.147 125.525 150.7C126.11 151.254 126.84 151.513 127.681 151.513C128.484 151.513 129.252 151.328 130.019 150.922C130.786 150.516 131.444 149.962 131.992 149.186C132.54 148.448 132.941 147.562 133.161 146.638C133.38 145.678 133.489 144.423 133.489 142.872C133.562 142.503 133.599 141.69 133.709 140.435ZM136.12 130.723C135.572 130.612 135.06 130.575 134.622 130.575C133.489 130.575 132.539 130.87 131.736 131.461C130.932 132.052 130.238 133.049 129.69 134.452C128.886 136.446 128.521 138.108 128.521 139.475C128.521 140.028 128.667 140.508 128.996 140.878C129.325 141.247 129.653 141.432 130.055 141.432C130.53 141.432 131.115 141.21 131.809 140.73C132.503 140.287 133.087 139.696 133.526 138.994C133.964 138.293 134.403 137.111 134.878 135.413L136.12 130.723Z" fill="#D3AF5F"/>
<path d="M149.892 138.736L150.477 139.511C147.591 142.281 145.107 143.684 143.061 143.684C142.221 143.684 141.6 143.389 141.161 142.835C140.723 142.281 140.504 141.358 140.504 140.102C140.504 137.554 141.271 135.006 142.805 132.495C144.522 129.615 146.568 128.212 148.979 128.212C149.819 128.212 150.44 128.433 150.879 128.839C151.317 129.246 151.536 129.837 151.536 130.575C151.536 131.351 151.281 132.126 150.733 132.865C150.185 133.603 149.271 134.379 147.883 135.191C147.189 135.597 145.728 136.299 143.499 137.333C143.39 137.961 143.353 138.588 143.353 139.179C143.353 140.028 143.499 140.619 143.755 140.952C144.011 141.284 144.413 141.469 144.924 141.469C145.399 141.469 145.947 141.321 146.531 141.062C147.262 140.619 148.395 139.844 149.892 138.736ZM143.682 136.151C145.582 135.302 147.006 134.379 147.956 133.382C148.614 132.68 148.943 132.015 148.943 131.314C148.943 130.797 148.796 130.39 148.541 130.095C148.285 129.8 147.92 129.652 147.518 129.652C147.079 129.652 146.641 129.836 146.239 130.169C145.691 130.612 145.216 131.277 144.851 132.163C144.303 133.455 143.901 134.785 143.682 136.151Z" fill="#D3AF5F"/>
<path d="M185 185.08L154.349 154.098C170.351 137.185 179.191 115.066 179.191 91.5798C179.191 41.691 139.042 1.10782 89.687 1.10782C66.489 1.10782 44.5695 10.0073 27.8377 26.2184L1.89969 0L0 1.92023L32.8426 35.1179C18.0835 50.295 9.93681 70.2727 9.93681 91.6167C9.93681 136.04 45.702 172.192 89.6505 172.192C110.766 172.192 130.53 163.957 145.545 149.039L183.1 187L185 185.08ZM89.687 3.80352C137.581 3.80352 176.524 43.168 176.524 91.5798C176.524 114.327 167.976 135.782 152.486 152.178L146.531 146.195L145.947 146.786C160.085 131.904 168.195 111.816 168.195 91.5059C168.195 47.784 133.014 12.2229 89.7601 12.2229C69.4115 12.2229 50.159 20.1254 35.3268 34.4901L35.6556 34.1578L29.7374 28.1386C45.9577 12.4445 67.1831 3.80352 89.687 3.80352ZM12.6037 91.5798C12.6037 70.5312 20.7869 50.812 35.6556 36.0411C50.3051 21.5656 69.5211 13.5523 89.7966 13.5523C132.32 13.5523 166.916 48.5225 166.916 91.5059C166.916 111.631 158.806 131.535 144.668 146.195C130.055 161.225 110.547 169.496 89.7235 169.496C47.1998 169.496 12.6037 134.526 12.6037 91.5798Z" fill="#D3AF5F"/>
<path d="M66.6351 103.618C58.5249 103.618 50.9627 99.1499 50.9627 90.2873C50.9627 84.6005 53.7026 82.4218 56.2599 82.4218C58.4153 82.4218 60.5342 84.1205 60.5342 86.6315C60.5342 91.2474 54.7621 90.5458 54.7621 93.8693C54.7621 97.4512 59.0363 100.295 63.4568 100.295C68.206 100.295 73.1013 97.045 73.0282 88.1086V51.4028C72.9552 46.6761 68.6809 46.3807 67.4023 45.8637C67.1465 45.7899 67.1465 45.3098 67.1465 45.3098H92.4635C92.4635 45.3098 92.4635 45.7899 92.2077 45.8637C91.0022 46.3438 86.9106 46.6761 86.5818 50.9966L86.6548 82.1264V84.8221C86.6548 97.4512 76.2066 103.618 66.6351 103.618Z" fill="#F1F1F2"/>
<path d="M116.392 77.5474H107.624V95.9741C107.624 100.701 111.899 100.996 113.177 101.513C113.433 101.587 113.433 102.178 113.433 102.178H88.1892C88.1892 102.178 88.1892 101.624 88.4449 101.513C89.7236 101.033 93.9978 100.701 93.9978 95.9741V51.3659C93.9978 46.6392 89.7236 46.3438 88.4449 45.8268C88.1892 45.753 88.1892 45.2729 88.1892 45.2729H131.115V60.1546C131.115 60.1546 130.567 60.0808 130.457 59.8961C128.923 54.874 124.831 47.4516 118.876 47.4516H107.624V75.4056H116.721C121.141 75.1471 123.406 69.3865 123.881 66.8015C123.954 66.5431 124.429 66.543 124.429 66.543V86.4838C124.429 86.4838 123.954 86.4838 123.881 86.2253C123.37 83.5665 121.032 77.5474 116.392 77.5474Z" fill="#F1F1F2"/>
</svg>
